<svg width="55" height="56" viewBox="0 0 55 56" fill="none" xmlns="http://www.w3.org/2000/svg">
<path d="M20.0781 2.84375C21.3906 1.53125 22.1198 0.875 22.2656 0.875C22.4115 0.875 23.2865 1.20312 24.8906 1.85938C26.4948 2.51562 27.4062 2.84375 27.625 2.84375C27.8438 2.84375 28.7552 2.51562 30.3594 1.85938C31.9635 1.20312 32.8385 0.875 32.9844 0.875C33.1302 0.875 33.8594 1.53125 35.1719 2.84375L37.1406 4.8125H39.875C41.7708 4.8125 42.7917 4.88542 42.9375 5.03125C43.1562 5.10417 43.5938 5.97917 44.25 7.65625C44.9062 9.1875 45.3073 10.026 45.4531 10.1719C45.599 10.3177 46.4375 10.7188 47.9688 11.375C49.6458 12.0312 50.5208 12.4688 50.5938 12.6875C50.7396 12.8333 50.8125 13.8542 50.8125 15.75V18.4844L52.7812 20.4531C54.0938 21.7656 54.75 22.4948 54.75 22.6406C54.75 22.7865 54.4219 23.6615 53.7656 25.2656C53.1094 26.8698 52.7812 27.7812 52.7812 28C52.7812 28.2188 53.1094 29.1302 53.7656 30.7344C54.4219 32.3385 54.75 33.2135 54.75 33.3594C54.75 33.5052 54.0938 34.2344 52.7812 35.5469L50.8125 37.5156V40.25C50.8125 42.1458 50.7396 43.1667 50.5938 43.3125C50.5208 43.5312 49.6458 43.9688 47.9688 44.625C46.4375 45.2812 45.599 45.6823 45.4531 45.8281C45.3073 45.974 44.9062 46.8125 44.25 48.3438C43.5938 50.0208 43.1562 50.8958 42.9375 50.9688C42.7917 51.1146 41.7708 51.1875 39.875 51.1875H37.1406L35.1719 53.1562C33.8594 54.4688 33.1302 55.125 32.9844 55.125C32.8385 55.125 31.9635 54.7969 30.3594 54.1406C28.7552 53.4844 27.8438 53.1562 27.625 53.1562C27.4062 53.1562 26.4948 53.4844 24.8906 54.1406C23.2865 54.7969 22.4115 55.125 22.2656 55.125C22.1198 55.125 21.3906 54.4688 20.0781 53.1562L18.1094 51.1875H15.375C13.4792 51.1875 12.4583 51.1146 12.3125 50.9688C12.0938 50.8958 11.6562 50.0208 11 48.3438C10.3438 46.8125 9.94271 45.974 9.79688 45.8281C9.65104 45.6823 8.8125 45.2812 7.28125 44.625C5.60417 43.9688 4.72917 43.5312 4.65625 43.3125C4.51042 43.1667 4.4375 42.1458 4.4375 40.25V37.5156L2.46875 35.5469C1.15625 34.2344 0.5 33.5052 0.5 33.3594C0.5 33.2135 0.828125 32.3385 1.48438 30.7344C2.14062 29.1302 2.46875 28.2188 2.46875 28C2.46875 27.7812 2.14062 26.8698 1.48438 25.2656C0.828125 23.6615 0.5 22.7865 0.5 22.6406C0.5 22.4948 1.15625 21.7656 2.46875 20.4531L4.4375 18.4844V15.75C4.4375 13.8542 4.51042 12.8333 4.65625 12.6875C4.72917 12.4688 5.60417 12.0312 7.28125 11.375C8.8125 10.7188 9.65104 10.3177 9.79688 10.1719C9.94271 10.026 10.3438 9.1875 11 7.65625C11.6562 5.97917 12.0938 5.10417 12.3125 5.03125C12.4583 4.88542 13.4792 4.8125 15.375 4.8125H18.1094L20.0781 2.84375ZM20.7344 4.59375L18.9844 6.45312L16.1406 6.5625L13.2969 6.67188L12.3125 8.96875C11.6562 10.5 11.2552 11.3385 11.1094 11.4844C10.9635 11.6302 10.125 12.0312 8.59375 12.6875L6.29688 13.6719L6.1875 16.5156L6.07812 19.4688L4.21875 21.1094L2.35938 22.8594L3.45312 25.4844L4.54688 28L3.45312 30.5156L2.35938 33.1406L4.21875 34.8906L6.07812 36.5312L6.1875 39.4844L6.29688 42.3281L8.59375 43.3125C10.125 43.9688 10.9635 44.3698 11.1094 44.5156C11.2552 44.6615 11.6562 45.5 12.3125 47.0312L13.2969 49.3281L16.1406 49.4375L18.9844 49.5469L20.7344 51.4062L22.4844 53.2656L25.1094 52.1719L27.625 51.0781L30.1406 52.1719L32.7656 53.2656L34.5156 51.4062L36.2656 49.5469L39.1094 49.4375L41.9531 49.3281L42.9375 47.0312C43.5938 45.5 43.9948 44.6615 44.1406 44.5156C44.2865 44.3698 45.125 43.9688 46.6562 43.3125L48.9531 42.3281L49.0625 39.4844L49.1719 36.6406L51.0312 34.8906L52.8906 33.1406L51.7969 30.5156L50.7031 28L51.7969 25.4844L52.8906 22.8594L51.0312 21.1094L49.1719 19.3594L49.0625 16.5156L48.9531 13.6719L46.6562 12.6875C45.125 12.0312 44.2865 11.6302 44.1406 11.4844C43.9948 11.3385 43.5938 10.5 42.9375 8.96875L41.9531 6.67188L39.1094 6.5625L36.2656 6.45312L34.5156 4.59375L32.7656 2.73438L30.1406 3.82812L27.625 4.92188L25.2188 3.82812C23.6146 3.17188 22.7396 2.84375 22.5938 2.84375C22.5208 2.84375 21.901 3.42708 20.7344 4.59375ZM16.25 15.2031C18.4375 14.474 20.2969 14.9479 21.8281 16.625C23.9427 18.9583 23.9427 21.2917 21.8281 23.625C20.8073 24.7917 19.5677 25.375 18.1094 25.375C16.724 25.375 15.4844 24.8281 14.3906 23.7344C12.8594 22.2031 12.3854 20.4531 12.9688 18.4844C13.1146 17.901 13.5521 17.2448 14.2812 16.5156C15.0833 15.7865 15.7396 15.349 16.25 15.2031ZM26.9688 27.4531C35.3542 19.0677 39.6562 14.875 39.875 14.875C40.4583 14.875 40.75 15.1667 40.75 15.75C40.75 15.9688 36.5573 20.2708 28.1719 28.6562C19.8594 36.9688 15.5938 41.125 15.375 41.125C14.7917 41.125 14.5 40.8333 14.5 40.25C14.5 40.0312 18.6562 35.7656 26.9688 27.4531ZM16.5781 16.9531C15.4844 17.4635 14.8281 18.3021 14.6094 19.4688C14.3906 20.6354 14.7188 21.6562 15.5938 22.5312C17.1979 24.1354 18.8021 24.1354 20.4062 22.5312C21.7917 21.1458 21.9375 19.6875 20.8438 18.1562C19.75 16.5521 18.3281 16.151 16.5781 16.9531ZM35.5 30.9531C37.6875 30.224 39.5469 30.6979 41.0781 32.375C43.1927 34.7083 43.1927 37.0417 41.0781 39.375C40.0573 40.5417 38.8177 41.125 37.3594 41.125C35.974 41.125 34.7344 40.5781 33.6406 39.4844C32.1094 37.9531 31.6354 36.2031 32.2188 34.2344C32.3646 33.724 32.8021 33.1042 33.5312 32.375C34.2604 31.5729 34.9167 31.099 35.5 30.9531ZM35.8281 32.7031C34.7344 33.2135 34.0781 34.0521 33.8594 35.2188C33.6406 36.3854 33.9688 37.4062 34.8438 38.2812C36.4479 39.8854 38.0521 39.8854 39.6562 38.2812C41.0417 36.8958 41.1875 35.4375 40.0938 33.9062C39 32.3021 37.5781 31.901 35.8281 32.7031Z" fill="#F53B30"/>
</svg>
