<svg width="55" height="56" viewBox="0 0 55 56" fill="none" xmlns="http://www.w3.org/2000/svg">
<path d="M6.1875 1.20312C6.625 1.05729 11.875 0.984375 21.9375 0.984375C31.8542 0.984375 36.8854 1.09375 37.0312 1.3125C37.25 1.60417 37.25 1.89583 37.0312 2.1875C36.8854 2.40625 31.7812 2.55208 21.7188 2.625L6.625 2.73438L5.64062 3.28125C4.61979 3.79167 3.78125 4.55729 3.125 5.57812C2.46875 6.59896 2.14062 7.65625 2.14062 8.75C2.14062 10.3542 2.76042 11.776 4 13.0156C4.94792 13.9635 6.07812 14.5104 7.39062 14.6562C8.70312 14.8021 13.5885 14.875 22.0469 14.875C31.8177 14.875 36.776 14.9479 36.9219 15.0938C37.0677 15.2396 37.1406 17.026 37.1406 20.4531V25.5938L39 25.4844C41.5521 25.3385 43.9583 25.8125 46.2188 26.9062C49.9375 28.7292 52.4531 31.5729 53.7656 35.4375C55.151 39.2292 54.9323 42.9844 53.1094 46.7031C50.9219 51.224 47.3125 53.9219 42.2812 54.7969C37.3229 55.7448 33.0208 54.4323 29.375 50.8594L28.3906 49.875H17.3438L6.40625 49.7656L5.09375 49.1094C3.27083 48.2344 1.95833 46.9219 1.15625 45.1719L0.5 43.8594V25.375V6.89062L1.15625 5.57812C2.10417 3.39062 3.78125 1.93229 6.1875 1.20312ZM7.60938 8.09375C7.75521 7.94792 12.3854 7.875 21.5 7.875C30.4688 7.875 35.0625 8.02083 35.2812 8.3125C35.5 8.60417 35.5 8.89583 35.2812 9.1875C35.0625 9.47917 30.4688 9.625 21.5 9.625C12.4583 9.625 7.86458 9.55208 7.71875 9.40625C7.28125 8.96875 7.24479 8.53125 7.60938 8.09375ZM2.14062 28.2188C2.14062 36.6771 2.21354 41.5625 2.35938 42.875C2.50521 44.1875 3.05208 45.3177 4 46.2656C4.94792 47.2135 5.93229 47.7604 6.95312 47.9062C8.04688 48.0521 11.474 48.125 17.2344 48.125H27.0781L26.3125 46.5938C24.3438 42.2188 24.3802 37.9531 26.4219 33.7969C27.9531 30.5885 30.2865 28.2552 33.4219 26.7969L35.3906 25.9219V21.3281V16.625H20.8438L6.40625 16.5156L5.09375 15.8594C4.21875 15.4948 3.48958 15.0208 2.90625 14.4375L2.14062 13.6719V28.2188ZM36.4844 27.5625C34.2969 28.1458 32.3281 29.3125 30.5781 31.0625C28.8281 32.8125 27.6615 34.8177 27.0781 37.0781C26.276 40.3594 26.6406 43.4948 28.1719 46.4844C28.6094 47.3594 29.375 48.3438 30.4688 49.4375C31.6354 50.5312 32.6562 51.3333 33.5312 51.8438C36.4479 53.4479 39.5833 53.8125 42.9375 52.9375C45.1979 52.3542 47.2031 51.1875 48.9531 49.4375C50.7031 47.6875 51.8698 45.6823 52.4531 43.4219C53.2552 40.1406 52.8906 37.0052 51.3594 34.0156C50.9219 33.1406 50.1198 32.1562 48.9531 31.0625C47.8594 29.8958 46.875 29.0938 46 28.6562C43.0833 27.0521 39.9115 26.6875 36.4844 27.5625ZM42.1719 39.5938L38.7812 43.3125L36.8125 41.3438C35.5 40.0312 34.7344 39.375 34.5156 39.375C33.9323 39.375 33.6406 39.6667 33.6406 40.25C33.6406 40.4688 34.4427 41.4167 36.0469 43.0938C37.724 44.6979 38.6719 45.5 38.8906 45.5C39.1094 45.5 40.4583 44.151 42.9375 41.4531C45.4167 38.6823 46.6927 37.151 46.7656 36.8594C46.8385 36.6406 46.7656 36.4219 46.5469 36.2031C46.3281 35.9844 46.1094 35.875 45.8906 35.875C45.6719 35.875 44.4323 37.1146 42.1719 39.5938Z" fill="#F53B30"/>
</svg>
