<svg width="55" height="52" viewBox="0 0 55 52" fill="none" xmlns="http://www.w3.org/2000/svg">
<path d="M8.04688 0.953125C10.4531 0.151042 12.5677 0.661458 14.3906 2.48438C15.5573 3.65104 16.1771 5.03646 16.25 6.64062C16.3229 8.17188 15.8125 9.55729 14.7188 10.7969L13.8438 11.8906C16.9792 13.7865 18.8385 16.375 19.4219 19.6562C19.7865 21.625 19.7865 22.7917 19.4219 23.1562C19.276 23.3021 16.1406 23.375 10.0156 23.375C3.96354 23.375 0.864583 23.3021 0.71875 23.1562C0.427083 22.8646 0.463542 21.6979 0.828125 19.6562C1.41146 16.375 3.27083 13.7865 6.40625 11.8906C6.1875 11.526 5.89583 11.1615 5.53125 10.7969C4.07292 9.11979 3.67188 7.11458 4.32812 4.78125C4.54688 3.97917 5.02083 3.21354 5.75 2.48438C6.55208 1.68229 7.31771 1.17188 8.04688 0.953125ZM43.0469 0.953125C45.4531 0.151042 47.5677 0.661458 49.3906 2.48438C50.5573 3.65104 51.1771 5.03646 51.25 6.64062C51.3229 8.17188 50.8125 9.55729 49.7188 10.7969L48.8438 11.8906C51.9792 13.7865 53.8385 16.375 54.4219 19.6562C54.7865 21.625 54.7865 22.7917 54.4219 23.1562C54.276 23.3021 51.1406 23.375 45.0156 23.375C38.9635 23.375 35.8646 23.3021 35.7188 23.1562C35.4271 22.8646 35.4635 21.6979 35.8281 19.6562C36.4115 16.375 38.2708 13.7865 41.4062 11.8906C41.1875 11.526 40.8958 11.1615 40.5312 10.7969C39.0729 9.11979 38.6719 7.11458 39.3281 4.78125C39.5469 3.97917 40.0208 3.21354 40.75 2.48438C41.5521 1.68229 42.3177 1.17188 43.0469 0.953125ZM8.59375 2.59375C8.08333 2.73958 7.53646 3.10417 6.95312 3.6875C6.44271 4.27083 6.11458 4.85417 5.96875 5.4375C5.67708 6.45833 5.71354 7.44271 6.07812 8.39062C6.44271 9.26562 7.02604 9.95833 7.82812 10.4688C9.35938 11.4167 10.8906 11.4167 12.4219 10.4688C13.7344 9.59375 14.3906 8.35417 14.3906 6.75C14.3906 5.14583 13.7708 3.94271 12.5312 3.14062C11.3646 2.33854 10.0521 2.15625 8.59375 2.59375ZM43.5938 2.59375C43.0833 2.73958 42.5365 3.10417 41.9531 3.6875C41.4427 4.27083 41.1146 4.85417 40.9688 5.4375C40.6771 6.45833 40.7135 7.44271 41.0781 8.39062C41.4427 9.26562 42.026 9.95833 42.8281 10.4688C44.3594 11.4167 45.8906 11.4167 47.4219 10.4688C48.7344 9.59375 49.3906 8.35417 49.3906 6.75C49.3906 5.14583 48.7708 3.94271 47.5312 3.14062C46.3646 2.33854 45.0521 2.15625 43.5938 2.59375ZM19.9688 9.59375C20.1146 9.44792 22.7031 9.375 27.7344 9.375C32.6198 9.375 35.1719 9.52083 35.3906 9.8125C35.6094 10.1042 35.6094 10.3958 35.3906 10.6875C35.1719 10.9792 32.6198 11.125 27.7344 11.125C22.776 11.125 20.224 11.0521 20.0781 10.9062C19.5677 10.4688 19.5312 10.0312 19.9688 9.59375ZM8.04688 13.2031C6.66146 13.6406 5.53125 14.3698 4.65625 15.3906C3.48958 16.5573 2.72396 18.3438 2.35938 20.75L2.25 21.625H10.125H18L17.8906 20.75C17.526 18.4167 16.6875 16.5938 15.375 15.2812C14.0625 13.8958 12.4219 13.1302 10.4531 12.9844C9.21354 12.9844 8.41146 13.0573 8.04688 13.2031ZM43.0469 13.2031C41.6615 13.6406 40.5312 14.3698 39.6562 15.3906C38.4896 16.5573 37.724 18.3438 37.3594 20.75L37.25 21.625H45.125H53L52.8906 20.75C52.526 18.4167 51.6875 16.5938 50.375 15.2812C49.0625 13.8958 47.4219 13.1302 45.4531 12.9844C44.2135 12.9844 43.4115 13.0573 43.0469 13.2031ZM25.4375 25.4531C28.1354 24.5781 30.5052 25.1615 32.5469 27.2031C33.8594 28.5156 34.5156 30.1562 34.5156 32.125C34.5156 33.2917 34.2604 34.3854 33.75 35.4062C33.1667 36.3542 32.6562 37.0104 32.2188 37.375L31.5625 38.0312C32 38.3229 32.474 38.5781 32.9844 38.7969C34.3698 39.4531 35.5729 40.5104 36.5938 41.9688C37.6875 43.4271 38.4167 44.9583 38.7812 46.5625C38.9271 47.3646 38.9635 48.276 38.8906 49.2969C38.8906 50.3906 38.8177 51.0104 38.6719 51.1562C38.526 51.3021 34.8073 51.375 27.5156 51.375C20.2969 51.375 16.6146 51.3021 16.4688 51.1562C16.3229 51.0104 16.25 50.3906 16.25 49.2969C16.25 48.2031 16.3229 47.2917 16.4688 46.5625C16.6146 45.6875 16.9427 44.7396 17.4531 43.7188C18.5469 41.4583 20.625 39.599 23.6875 38.1406L22.7031 37.1562C20.8073 35.3333 20.151 33.1823 20.7344 30.7031C21.3906 28.151 22.9583 26.401 25.4375 25.4531ZM9.25 27.75C9.25 27.4583 9.32292 27.2396 9.46875 27.0938C9.61458 26.9479 9.83333 26.875 10.125 26.875C10.3438 26.875 11.6927 28.151 14.1719 30.7031C16.724 33.1823 18 34.5312 18 34.75C18 35.3333 17.7083 35.625 17.125 35.625C16.9062 35.625 15.5208 34.3854 12.9688 31.9062C10.4896 29.3542 9.25 27.9688 9.25 27.75ZM25.875 27.2031C25.3646 27.349 24.7083 27.8229 23.9062 28.625C23.1771 29.3542 22.7396 29.974 22.5938 30.4844C22.0104 32.4531 22.4844 34.2031 24.0156 35.7344C25.1094 36.8281 26.3125 37.375 27.625 37.375C28.9375 37.375 30.1406 36.8281 31.2344 35.7344C32.3281 34.6406 32.875 33.4375 32.875 32.125C32.875 30.8125 32.3281 29.6094 31.2344 28.5156C29.7031 26.9844 27.9167 26.5469 25.875 27.2031ZM40.9688 30.7031C43.5208 28.151 44.9062 26.875 45.125 26.875C45.7083 26.875 46 27.1667 46 27.75C46 27.9688 44.724 29.3542 42.1719 31.9062C39.6927 34.3854 38.3438 35.625 38.125 35.625C37.5417 35.625 37.25 35.3333 37.25 34.75C37.25 34.5312 38.4896 33.1823 40.9688 30.7031ZM25.2188 39.4531C24.125 39.8177 23.3958 40.1094 23.0312 40.3281C21.3542 41.2031 20.0417 42.5521 19.0938 44.375C18.3646 45.6875 18 47.1094 18 48.6406V49.625H27.625H37.25V48.6406C37.25 47.1094 36.8854 45.6875 36.1562 44.375C35.2083 42.5521 33.8958 41.2031 32.2188 40.3281C29.9583 39.0885 27.625 38.7969 25.2188 39.4531Z" fill="#F53B30"/>
</svg>
