<svg width="48" height="56" viewBox="0 0 48 56" fill="none" xmlns="http://www.w3.org/2000/svg">
<path d="M12.5312 3.5C19.9688 1.75 23.7604 0.875 23.9062 0.875C24.125 0.875 27.8802 1.71354 35.1719 3.39062C42.4635 5.06771 46.2917 5.97917 46.6562 6.125C47.1667 6.34375 47.4583 6.89062 47.5312 7.76562C47.6771 8.64062 47.7135 11.4479 47.6406 16.1875C47.5677 22.1667 47.349 25.9948 46.9844 27.6719C45.8906 32.5573 44.2135 36.7865 41.9531 40.3594C39.1823 44.7344 35.6094 48.4167 31.2344 51.4062C27.5885 53.8854 25.2188 55.125 24.125 55.125C23.7604 55.125 22.7031 54.651 20.9531 53.7031C19.2031 52.7552 17.7812 51.9167 16.6875 51.1875C13.625 49.0729 10.7083 46.2292 7.9375 42.6562C4.58333 38.1354 2.35938 33.25 1.26562 28C0.755208 25.5208 0.5 21.1094 0.5 14.7656V7.10938L1.04688 6.5625C1.41146 6.19792 5.23958 5.17708 12.5312 3.5ZM14.6094 4.8125C13.151 5.17708 11.5833 5.54167 9.90625 5.90625C8.22917 6.27083 6.84375 6.59896 5.75 6.89062C4.65625 7.10938 4 7.25521 3.78125 7.32812L2.25 7.65625V15.0938C2.25 21 2.50521 25.2292 3.01562 27.7812C3.96354 32.375 5.93229 36.7865 8.92188 41.0156C11.2552 44.2969 14.0625 47.1042 17.3438 49.4375C20.7708 51.9167 23.0312 53.1562 24.125 53.1562C24.7083 53.1562 25.9479 52.5729 27.8438 51.4062C29.8125 50.2396 31.526 49.0729 32.9844 47.9062C39.401 42.7292 43.5208 35.7656 45.3438 27.0156C45.6354 25.776 45.8177 22.1667 45.8906 16.1875C46.0365 10.5 46.0365 7.65625 45.8906 7.65625C45.6719 7.65625 42.026 6.81771 34.9531 5.14062C27.8802 3.46354 24.1979 2.625 23.9062 2.625C23.8333 2.625 20.7344 3.35417 14.6094 4.8125ZM16.1406 15.2031C17.526 14.6927 19.0938 14.8021 20.8438 15.5312C21.4271 15.75 22.1562 16.224 23.0312 16.9531L24.125 18.0469L25 17.0625C25.4375 16.625 26.1667 16.151 27.1875 15.6406C28.0625 15.2031 29.0469 14.9844 30.1406 14.9844C32.1094 14.9844 33.7865 15.6771 35.1719 17.0625C36.776 18.6667 37.4323 20.6719 37.1406 23.0781C36.9219 25.4844 35.8646 28 33.9688 30.625C32.9479 31.9375 31.1615 33.724 28.6094 35.9844C26.1302 38.2448 24.6354 39.375 24.125 39.375C23.6146 39.375 22.0833 38.2448 19.5312 35.9844C16.9792 33.724 15.2292 31.9375 14.2812 30.625C12.3854 28.0729 11.3281 25.5938 11.1094 23.1875C10.8906 20.7083 11.5469 18.6667 13.0781 17.0625C13.9531 16.1875 14.974 15.5677 16.1406 15.2031ZM16.6875 16.8438C15.1562 17.4271 14.026 18.375 13.2969 19.6875C12.4948 21.2188 12.5677 23.224 13.5156 25.7031C14.901 29.276 18.3281 33.1406 23.7969 37.2969C24.1615 37.5885 25.5833 36.6042 28.0625 34.3438C30.5417 32.0104 32.2552 30.151 33.2031 28.7656C34.6615 26.5052 35.3906 24.3542 35.3906 22.3125C35.3906 21.0729 35.2448 20.1615 34.9531 19.5781C34.3698 18.4844 33.5312 17.6823 32.4375 17.1719C30.8333 16.3698 29.2656 16.3698 27.7344 17.1719C26.5677 17.8281 25.6562 18.8125 25 20.125C24.4167 21.0729 23.8333 21.0729 23.25 20.125C22.0833 18.0104 20.4792 16.8802 18.4375 16.7344C17.4896 16.7344 16.9062 16.7708 16.6875 16.8438Z" fill="#F53B30"/>
</svg>
