<svg width="71" height="70" viewBox="0 0 71 70" fill="none" xmlns="http://www.w3.org/2000/svg">
<path d="M5.5 21.7812C5.5 7.71875 5.59375 0.59375 5.78125 0.40625C5.96875 0.21875 16 0.125 35.875 0.125C55.75 0.125 65.7812 0.21875 65.9688 0.40625C66.1562 0.59375 66.25 7.71875 66.25 21.7812V42.875H68.2188C69.5312 42.875 70.3281 43.0625 70.6094 43.4375C70.8906 43.8125 70.8906 44.1875 70.6094 44.5625C70.3281 44.9375 64.6562 45.125 53.5938 45.125H37V51.1719V57.0781L42.625 62.7031C46.375 66.4531 48.25 68.4688 48.25 68.75C48.25 69.5 47.875 69.875 47.125 69.875C46.75 69.875 44.7812 68.0938 41.2188 64.5312L35.875 59.0469L30.3906 64.5312C26.8281 68.0938 24.9062 69.875 24.625 69.875C23.875 69.875 23.5 69.5 23.5 68.75C23.5 68.4688 25.375 66.4531 29.125 62.7031L34.75 57.0781V51.1719V45.125H18.1562C7.09375 45.125 1.42188 44.9375 1.14062 44.5625C0.859375 44.1875 0.859375 43.8125 1.14062 43.4375C1.42188 43.0625 2.21875 42.875 3.53125 42.875H5.5V21.7812ZM7.75 12.5V22.625H12.6719H17.4531L20.8281 19.25C23.0781 17 24.3906 15.875 24.7656 15.875C25.0469 15.875 26.2656 17.9844 28.4219 22.2031L31.5156 28.3906L34.6094 24.3125C36.5781 21.6875 37.7031 20.375 37.9844 20.375C38.3594 20.375 39.2031 21.0313 40.5156 22.3438L42.4844 24.3125L47.9688 17.8438C51.5312 13.5312 53.5 11.375 53.875 11.375C54.1562 11.375 54.4375 11.5156 54.7188 11.7969C55 12.0781 55.0938 12.3594 55 12.6406C54.9062 13.0156 52.8438 15.5469 48.8125 20.2344C44.875 24.8281 42.8125 27.125 42.625 27.125C42.3438 27.125 41.5469 26.4688 40.2344 25.1562L38.2656 23.1875L35.0312 27.4062C33.7188 29.1875 32.8281 30.3594 32.3594 30.9219C31.8906 31.4844 31.5156 31.7188 31.2344 31.625C30.7656 31.5312 29.5 29.375 27.4375 25.1562L24.3438 18.8281L21.25 21.9219L18.2969 24.875H12.9531H7.75V33.875V42.875H35.875H64V22.625V2.375H35.875H7.75V12.5Z" fill="#F53B30"/>
</svg>
