<svg width="55" height="56" viewBox="0 0 55 56" fill="none" xmlns="http://www.w3.org/2000/svg">
<path d="M39.2188 1.09375C39.3646 0.947917 39.5469 0.875 39.7656 0.875C40.1302 0.875 41.7708 1.20312 44.6875 1.85938C47.6771 2.51562 49.2083 2.88021 49.2812 2.95312C49.5 3.17188 49.4635 4.8125 49.1719 7.875C48.8802 10.8646 48.5885 12.5052 48.2969 12.7969C48.151 12.9427 47.8958 13.0156 47.5312 13.0156C47.2396 12.9427 47.0573 12.7969 46.9844 12.5781L47.0938 12.1406C47.0938 11.849 47.0938 11.4115 47.0938 10.8281C47.1667 10.2448 47.2031 9.73438 47.2031 9.29688C47.2031 8.78646 47.2396 8.27604 47.3125 7.76562C47.3854 7.25521 47.4219 6.85417 47.4219 6.5625C47.4948 6.19792 47.5312 5.97917 47.5312 5.90625C47.5312 5.83333 46.7292 6.38021 45.125 7.54688C43.5938 8.71354 41.2969 10.5 38.2344 12.9062C35.1719 15.3125 31.599 18.1198 27.5156 21.3281L7.0625 37.5156C6.77083 37.7344 6.47917 37.7344 6.1875 37.5156C5.75 37.224 5.82292 36.7865 6.40625 36.2031C7.42708 35.1823 13.9896 29.8594 26.0938 20.2344L46.3281 4.04688C45.3073 3.75521 44.1771 3.5 42.9375 3.28125C40.6042 2.84375 39.3646 2.55208 39.2188 2.40625C38.7812 1.96875 38.7812 1.53125 39.2188 1.09375ZM44.25 36.9688C44.25 26.0312 44.3229 20.4896 44.4688 20.3438C44.6146 20.1979 45.9635 20.125 48.5156 20.125C51.1406 20.125 52.526 20.1979 52.6719 20.3438C52.8906 20.5625 53 26.1042 53 36.9688V53.375H53.6562C54.0938 53.4479 54.3854 53.5938 54.5312 53.8125C54.75 54.1042 54.7865 54.3958 54.6406 54.6875C54.4948 54.9062 45.4896 55.0156 27.625 55.0156C9.76042 55.0156 0.755208 54.9062 0.609375 54.6875C0.463542 54.3958 0.463542 54.1042 0.609375 53.8125C0.828125 53.5938 1.15625 53.4479 1.59375 53.375H2.25V50.0938C2.25 47.9062 2.32292 46.7396 2.46875 46.5938C2.61458 46.4479 3.96354 46.375 6.51562 46.375C9.14062 46.375 10.526 46.4479 10.6719 46.5938C10.8906 46.8125 11 47.9792 11 50.0938V53.375H13.625H16.25V45.7188C16.25 40.6146 16.3229 37.9896 16.4688 37.8438C16.6146 37.6979 17.9635 37.625 20.5156 37.625C23.1406 37.625 24.526 37.6979 24.6719 37.8438C24.8906 38.0625 25 40.6875 25 45.7188V53.375H27.625H30.25V41.3438C30.25 33.3229 30.3229 29.2396 30.4688 29.0938C30.6146 28.9479 31.9635 28.875 34.5156 28.875C37.1406 28.875 38.526 28.9479 38.6719 29.0938C38.8906 29.3125 39 33.3958 39 41.3438V53.375H41.625H44.25V36.9688ZM46 37.625V53.375H48.625H51.25V37.625V21.875H48.625H46V37.625ZM32 42V53.375H34.625H37.25V42V30.625H34.625H32V42ZM18 46.375V53.375H20.625H23.25V46.375V39.375H20.625H18V46.375ZM4 50.75V53.375H6.625H9.25V50.75V48.125H6.625H4V50.75Z" fill="#F53B30"/>
</svg>
