<svg width="118" height="55" viewBox="0 0 118 55" fill="none" xmlns="http://www.w3.org/2000/svg">
<path d="M6.912 51.128C6.08 51.128 5.34933 50.968 4.72 50.648C4.09067 50.3173 3.60533 49.8587 3.264 49.272C2.92267 48.6853 2.752 48.008 2.752 47.24V43.544C2.752 42.776 2.92267 42.0987 3.264 41.512C3.60533 40.9253 4.09067 40.472 4.72 40.152C5.34933 39.832 6.08 39.672 6.912 39.672C7.73333 39.672 8.45333 39.8267 9.072 40.136C9.70133 40.4347 10.1867 40.8667 10.528 41.432C10.88 41.9867 11.056 42.632 11.056 43.368C11.056 43.464 10.992 43.5227 10.864 43.544L8.992 43.656H8.96C8.85333 43.656 8.8 43.5973 8.8 43.48C8.8 42.9147 8.624 42.4613 8.272 42.12C7.93067 41.7787 7.47733 41.608 6.912 41.608C6.336 41.608 5.872 41.7787 5.52 42.12C5.17867 42.4613 5.008 42.9147 5.008 43.48V47.336C5.008 47.8907 5.17867 48.3387 5.52 48.68C5.872 49.0213 6.336 49.192 6.912 49.192C7.47733 49.192 7.93067 49.0213 8.272 48.68C8.624 48.3387 8.8 47.8907 8.8 47.336C8.8 47.2187 8.864 47.16 8.992 47.16L10.864 47.24C10.9173 47.24 10.96 47.256 10.992 47.288C11.0347 47.32 11.056 47.3573 11.056 47.4C11.056 48.136 10.88 48.7867 10.528 49.352C10.1867 49.9173 9.70133 50.3547 9.072 50.664C8.45333 50.9733 7.73333 51.128 6.912 51.128ZM16.6944 51.176C15.8624 51.176 15.1264 51.0053 14.4864 50.664C13.857 50.3227 13.3664 49.848 13.0144 49.24C12.6624 48.6213 12.4864 47.912 12.4864 47.112V43.688C12.4864 42.8987 12.6624 42.2 13.0144 41.592C13.3664 40.984 13.857 40.5147 14.4864 40.184C15.1264 39.8427 15.8624 39.672 16.6944 39.672C17.537 39.672 18.273 39.8427 18.9024 40.184C19.5424 40.5147 20.0384 40.984 20.3904 41.592C20.7424 42.2 20.9184 42.8987 20.9184 43.688V47.112C20.9184 47.912 20.7424 48.6213 20.3904 49.24C20.0384 49.8587 19.5424 50.3387 18.9024 50.68C18.273 51.0107 17.537 51.176 16.6944 51.176ZM16.6944 49.24C17.281 49.24 17.7557 49.0533 18.1184 48.68C18.481 48.3067 18.6624 47.8107 18.6624 47.192V43.672C18.6624 43.0533 18.481 42.5573 18.1184 42.184C17.7664 41.8 17.2917 41.608 16.6944 41.608C16.1077 41.608 15.633 41.8 15.2704 42.184C14.9184 42.5573 14.7424 43.0533 14.7424 43.672V47.192C14.7424 47.8107 14.9184 48.3067 15.2704 48.68C15.633 49.0533 16.1077 49.24 16.6944 49.24ZM29.0799 39.992C29.0799 39.9387 29.0959 39.896 29.1279 39.864C29.1705 39.8213 29.2185 39.8 29.2719 39.8H31.1439C31.1972 39.8 31.2399 39.8213 31.2719 39.864C31.3145 39.896 31.3359 39.9387 31.3359 39.992V50.808C31.3359 50.8613 31.3145 50.9093 31.2719 50.952C31.2399 50.984 31.1972 51 31.1439 51H29.3359C29.2292 51 29.1545 50.9573 29.1119 50.872L24.9679 44.024C24.9465 43.992 24.9252 43.9813 24.9039 43.992C24.8825 43.992 24.8719 44.0133 24.8719 44.056L24.9039 50.808C24.9039 50.8613 24.8825 50.9093 24.8399 50.952C24.8079 50.984 24.7652 51 24.7119 51H22.8399C22.7865 51 22.7385 50.984 22.6959 50.952C22.6639 50.9093 22.6479 50.8613 22.6479 50.808V39.992C22.6479 39.9387 22.6639 39.896 22.6959 39.864C22.7385 39.8213 22.7865 39.8 22.8399 39.8H24.6479C24.7545 39.8 24.8292 39.8427 24.8719 39.928L28.9999 46.744C29.0212 46.776 29.0425 46.792 29.0639 46.792C29.0852 46.7813 29.0959 46.7547 29.0959 46.712L29.0799 39.992ZM37.1285 51.128C36.2752 51.128 35.5285 50.9947 34.8885 50.728C34.2485 50.4507 33.7525 50.0613 33.4005 49.56C33.0592 49.048 32.8885 48.456 32.8885 47.784V47.432C32.8885 47.3787 32.9045 47.336 32.9365 47.304C32.9792 47.2613 33.0272 47.24 33.0805 47.24H34.9045C34.9578 47.24 35.0005 47.2613 35.0325 47.304C35.0752 47.336 35.0965 47.3787 35.0965 47.432V47.672C35.0965 48.0987 35.2938 48.4613 35.6885 48.76C36.0832 49.048 36.6165 49.192 37.2885 49.192C37.8538 49.192 38.2752 49.0747 38.5525 48.84C38.8298 48.5947 38.9685 48.296 38.9685 47.944C38.9685 47.688 38.8832 47.4747 38.7125 47.304C38.5418 47.1227 38.3072 46.968 38.0085 46.84C37.7205 46.7013 37.2565 46.5147 36.6165 46.28C35.9018 46.0347 35.2938 45.784 34.7925 45.528C34.3018 45.272 33.8858 44.9253 33.5445 44.488C33.2138 44.04 33.0485 43.4907 33.0485 42.84C33.0485 42.2 33.2138 41.64 33.5445 41.16C33.8752 40.68 34.3338 40.312 34.9205 40.056C35.5072 39.8 36.1845 39.672 36.9525 39.672C37.7632 39.672 38.4832 39.816 39.1125 40.104C39.7525 40.392 40.2485 40.7973 40.6005 41.32C40.9632 41.832 41.1445 42.4293 41.1445 43.112V43.352C41.1445 43.4053 41.1232 43.4533 41.0805 43.496C41.0485 43.528 41.0058 43.544 40.9525 43.544H39.1125C39.0592 43.544 39.0112 43.528 38.9685 43.496C38.9365 43.4533 38.9205 43.4053 38.9205 43.352V43.224C38.9205 42.776 38.7338 42.3973 38.3605 42.088C37.9978 41.768 37.4965 41.608 36.8565 41.608C36.3552 41.608 35.9605 41.7147 35.6725 41.928C35.3952 42.1413 35.2565 42.4347 35.2565 42.808C35.2565 43.0747 35.3365 43.2987 35.4965 43.48C35.6672 43.6613 35.9125 43.8267 36.2325 43.976C36.5632 44.1147 37.0698 44.3067 37.7525 44.552C38.5098 44.8293 39.1018 45.0747 39.5285 45.288C39.9658 45.5013 40.3552 45.8213 40.6965 46.248C41.0485 46.664 41.2245 47.208 41.2245 47.88C41.2245 48.8827 40.8565 49.6773 40.1205 50.264C39.3845 50.84 38.3872 51.128 37.1285 51.128ZM46.8681 51.128C46.0468 51.128 45.3215 50.968 44.6921 50.648C44.0735 50.328 43.5881 49.88 43.2361 49.304C42.8948 48.7173 42.7241 48.0453 42.7241 47.288V39.992C42.7241 39.9387 42.7401 39.896 42.7721 39.864C42.8148 39.8213 42.8628 39.8 42.9161 39.8H44.7881C44.8415 39.8 44.8841 39.8213 44.9161 39.864C44.9588 39.896 44.9801 39.9387 44.9801 39.992V47.304C44.9801 47.8693 45.1508 48.328 45.4921 48.68C45.8441 49.0213 46.3028 49.192 46.8681 49.192C47.4335 49.192 47.8868 49.0213 48.2281 48.68C48.5801 48.328 48.7561 47.8693 48.7561 47.304V39.992C48.7561 39.9387 48.7721 39.896 48.8041 39.864C48.8468 39.8213 48.8948 39.8 48.9481 39.8H50.8201C50.8735 39.8 50.9161 39.8213 50.9481 39.864C50.9908 39.896 51.0121 39.9387 51.0121 39.992V47.288C51.0121 48.0453 50.8361 48.7173 50.4841 49.304C50.1428 49.88 49.6575 50.328 49.0281 50.648C48.4095 50.968 47.6895 51.128 46.8681 51.128ZM53.0586 51C53.0053 51 52.9573 50.984 52.9146 50.952C52.8826 50.9093 52.8666 50.8613 52.8666 50.808V39.992C52.8666 39.9387 52.8826 39.896 52.9146 39.864C52.9573 39.8213 53.0053 39.8 53.0586 39.8H54.9306C54.984 39.8 55.0266 39.8213 55.0586 39.864C55.1013 39.896 55.1226 39.9387 55.1226 39.992V48.984C55.1226 49.0373 55.1493 49.064 55.2026 49.064H60.4346C60.488 49.064 60.5306 49.0853 60.5626 49.128C60.6053 49.16 60.6266 49.2027 60.6266 49.256V50.808C60.6266 50.8613 60.6053 50.9093 60.5626 50.952C60.5306 50.984 60.488 51 60.4346 51H53.0586ZM68.4228 39.8C68.4761 39.8 68.5188 39.8213 68.5508 39.864C68.5934 39.896 68.6148 39.9387 68.6148 39.992V41.56C68.6148 41.6133 68.5934 41.6613 68.5508 41.704C68.5188 41.736 68.4761 41.752 68.4228 41.752H65.5588C65.5054 41.752 65.4788 41.7787 65.4788 41.832V50.808C65.4788 50.8613 65.4574 50.9093 65.4148 50.952C65.3828 50.984 65.3401 51 65.2868 51H63.4148C63.3614 51 63.3134 50.984 63.2708 50.952C63.2388 50.9093 63.2228 50.8613 63.2228 50.808V41.832C63.2228 41.7787 63.1961 41.752 63.1428 41.752H60.3588C60.3054 41.752 60.2574 41.736 60.2148 41.704C60.1828 41.6613 60.1668 41.6133 60.1668 41.56V39.992C60.1668 39.9387 60.1828 39.896 60.2148 39.864C60.2574 39.8213 60.3054 39.8 60.3588 39.8H68.4228ZM76.1429 51C76.0362 51 75.9669 50.9467 75.9349 50.84L75.4549 49.272C75.4335 49.2293 75.4069 49.208 75.3749 49.208H71.4389C71.4069 49.208 71.3802 49.2293 71.3589 49.272L70.8949 50.84C70.8629 50.9467 70.7935 51 70.6869 51H68.6549C68.5909 51 68.5429 50.984 68.5109 50.952C68.4789 50.9093 68.4735 50.8507 68.4949 50.776L71.9509 39.96C71.9829 39.8533 72.0522 39.8 72.1589 39.8H74.6709C74.7775 39.8 74.8469 39.8533 74.8789 39.96L78.3349 50.776C78.3455 50.7973 78.3509 50.824 78.3509 50.856C78.3509 50.952 78.2922 51 78.1749 51H76.1429ZM71.9349 47.368C71.9242 47.432 71.9455 47.464 71.9989 47.464H74.8149C74.8789 47.464 74.9002 47.432 74.8789 47.368L73.4389 42.616C73.4282 42.5733 73.4122 42.5573 73.3909 42.568C73.3695 42.568 73.3535 42.584 73.3429 42.616L71.9349 47.368ZM86.1893 39.992C86.1893 39.9387 86.2053 39.896 86.2373 39.864C86.2799 39.8213 86.3279 39.8 86.3813 39.8H88.2533C88.3066 39.8 88.3493 39.8213 88.3813 39.864C88.4239 39.896 88.4453 39.9387 88.4453 39.992V50.808C88.4453 50.8613 88.4239 50.9093 88.3813 50.952C88.3493 50.984 88.3066 51 88.2533 51H86.4453C86.3386 51 86.2639 50.9573 86.2213 50.872L82.0773 44.024C82.0559 43.992 82.0346 43.9813 82.0133 43.992C81.9919 43.992 81.9813 44.0133 81.9813 44.056L82.0133 50.808C82.0133 50.8613 81.9919 50.9093 81.9493 50.952C81.9173 50.984 81.8746 51 81.8213 51H79.9493C79.8959 51 79.8479 50.984 79.8053 50.952C79.7733 50.9093 79.7573 50.8613 79.7573 50.808V39.992C79.7573 39.9387 79.7733 39.896 79.8053 39.864C79.8479 39.8213 79.8959 39.8 79.9493 39.8H81.7573C81.8639 39.8 81.9386 39.8427 81.9813 39.928L86.1093 46.744C86.1306 46.776 86.1519 46.792 86.1733 46.792C86.1946 46.7813 86.2053 46.7547 86.2053 46.712L86.1893 39.992ZM94.3339 51.128C93.5019 51.128 92.7712 50.968 92.1419 50.648C91.5125 50.3173 91.0272 49.8587 90.6859 49.272C90.3445 48.6853 90.1739 48.008 90.1739 47.24V43.544C90.1739 42.776 90.3445 42.0987 90.6859 41.512C91.0272 40.9253 91.5125 40.472 92.1419 40.152C92.7712 39.832 93.5019 39.672 94.3339 39.672C95.1552 39.672 95.8752 39.8267 96.4939 40.136C97.1232 40.4347 97.6085 40.8667 97.9499 41.432C98.3019 41.9867 98.4779 42.632 98.4779 43.368C98.4779 43.464 98.4139 43.5227 98.2859 43.544L96.4139 43.656H96.3819C96.2752 43.656 96.2219 43.5973 96.2219 43.48C96.2219 42.9147 96.0459 42.4613 95.6939 42.12C95.3525 41.7787 94.8992 41.608 94.3339 41.608C93.7579 41.608 93.2939 41.7787 92.9419 42.12C92.6005 42.4613 92.4299 42.9147 92.4299 43.48V47.336C92.4299 47.8907 92.6005 48.3387 92.9419 48.68C93.2939 49.0213 93.7579 49.192 94.3339 49.192C94.8992 49.192 95.3525 49.0213 95.6939 48.68C96.0459 48.3387 96.2219 47.8907 96.2219 47.336C96.2219 47.2187 96.2859 47.16 96.4139 47.16L98.2859 47.24C98.3392 47.24 98.3819 47.256 98.4139 47.288C98.4565 47.32 98.4779 47.3573 98.4779 47.4C98.4779 48.136 98.3019 48.7867 97.9499 49.352C97.6085 49.9173 97.1232 50.3547 96.4939 50.664C95.8752 50.9733 95.1552 51.128 94.3339 51.128ZM102.719 50.984C102.665 50.984 102.617 50.968 102.575 50.936C102.543 50.8933 102.527 50.8453 102.527 50.792V46.744C102.527 46.7013 102.521 46.6693 102.511 46.648L99.2148 40.024C99.1934 39.9813 99.1828 39.9493 99.1828 39.928C99.1828 39.8427 99.2414 39.8 99.3588 39.8H101.375C101.481 39.8 101.556 39.848 101.599 39.944L103.599 44.2C103.631 44.264 103.663 44.264 103.695 44.2L105.695 39.944C105.737 39.848 105.812 39.8 105.919 39.8H107.967C108.041 39.8 108.089 39.8213 108.111 39.864C108.143 39.896 108.143 39.9493 108.111 40.024L104.783 46.648C104.772 46.6693 104.767 46.7013 104.767 46.744V50.792C104.767 50.8453 104.745 50.8933 104.703 50.936C104.671 50.968 104.628 50.984 104.575 50.984H102.719ZM109.09 51C109.036 51 108.988 50.984 108.946 50.952C108.914 50.9093 108.898 50.8613 108.898 50.808V49.48C108.898 49.4267 108.914 49.384 108.946 49.352C108.988 49.3093 109.036 49.288 109.09 49.288H116.466C116.519 49.288 116.562 49.3093 116.594 49.352C116.636 49.384 116.658 49.4267 116.658 49.48V50.808C116.658 50.8613 116.636 50.9093 116.594 50.952C116.562 50.984 116.519 51 116.466 51H109.09Z" fill="white"/>
<path d="M11.052 29.288C9.18 29.288 7.536 28.928 6.12 28.208C4.704 27.464 3.612 26.432 2.844 25.112C2.076 23.792 1.692 22.268 1.692 20.54V12.224C1.692 10.496 2.076 8.972 2.844 7.652C3.612 6.332 4.704 5.312 6.12 4.592C7.536 3.872 9.18 3.512 11.052 3.512C12.9 3.512 14.52 3.86 15.912 4.556C17.328 5.228 18.42 6.2 19.188 7.472C19.98 8.72 20.376 10.172 20.376 11.828C20.376 12.044 20.232 12.176 19.944 12.224L15.732 12.476H15.66C15.42 12.476 15.3 12.344 15.3 12.08C15.3 10.808 14.904 9.788 14.112 9.02C13.344 8.252 12.324 7.868 11.052 7.868C9.756 7.868 8.712 8.252 7.92 9.02C7.152 9.788 6.768 10.808 6.768 12.08V20.756C6.768 22.004 7.152 23.012 7.92 23.78C8.712 24.548 9.756 24.932 11.052 24.932C12.324 24.932 13.344 24.548 14.112 23.78C14.904 23.012 15.3 22.004 15.3 20.756C15.3 20.492 15.444 20.36 15.732 20.36L19.944 20.54C20.064 20.54 20.16 20.576 20.232 20.648C20.328 20.72 20.376 20.804 20.376 20.9C20.376 22.556 19.98 24.02 19.188 25.292C18.42 26.564 17.328 27.548 15.912 28.244C14.52 28.94 12.9 29.288 11.052 29.288ZM31.0489 10.208C32.6089 10.208 34.0009 10.484 35.2249 11.036C36.4489 11.564 37.3969 12.296 38.0689 13.232C38.7649 14.168 39.1129 15.212 39.1129 16.364V28.568C39.1129 28.688 39.0649 28.796 38.9689 28.892C38.8969 28.964 38.8009 29 38.6809 29H34.4689C34.3489 29 34.2409 28.964 34.1449 28.892C34.0729 28.796 34.0369 28.688 34.0369 28.568V27.38C34.0369 27.308 34.0129 27.26 33.9649 27.236C33.9169 27.212 33.8689 27.236 33.8209 27.308C32.8129 28.628 31.1929 29.288 28.9609 29.288C27.0889 29.288 25.5769 28.832 24.4249 27.92C23.2729 27.008 22.6969 25.664 22.6969 23.888C22.6969 22.04 23.3449 20.612 24.6409 19.604C25.9369 18.572 27.7849 18.056 30.1849 18.056H33.8569C33.9769 18.056 34.0369 17.996 34.0369 17.876V17.084C34.0369 16.292 33.7969 15.68 33.3169 15.248C32.8369 14.792 32.1169 14.564 31.1569 14.564C30.4129 14.564 29.7889 14.696 29.2849 14.96C28.8049 15.224 28.4929 15.596 28.3489 16.076C28.2769 16.34 28.1209 16.46 27.8809 16.436L23.5249 15.86C23.2369 15.812 23.1049 15.704 23.1289 15.536C23.2249 14.528 23.6209 13.616 24.3169 12.8C25.0369 11.984 25.9729 11.348 27.1249 10.892C28.3009 10.436 29.6089 10.208 31.0489 10.208ZM30.3289 25.508C31.3609 25.508 32.2369 25.232 32.9569 24.68C33.6769 24.128 34.0369 23.42 34.0369 22.556V21.26C34.0369 21.14 33.9769 21.08 33.8569 21.08H31.2649C30.1849 21.08 29.3329 21.284 28.7089 21.692C28.1089 22.1 27.8089 22.676 27.8089 23.42C27.8089 24.068 28.0369 24.584 28.4929 24.968C28.9489 25.328 29.5609 25.508 30.3289 25.508ZM50.0684 29.252C48.4604 29.252 47.0564 29.024 45.8564 28.568C44.6564 28.112 43.7204 27.476 43.0484 26.66C42.4004 25.844 42.0764 24.92 42.0764 23.888V23.528C42.0764 23.408 42.1124 23.312 42.1844 23.24C42.2804 23.144 42.3884 23.096 42.5084 23.096H46.5044C46.6244 23.096 46.7204 23.144 46.7924 23.24C46.8884 23.312 46.9364 23.408 46.9364 23.528V23.564C46.9364 24.092 47.2244 24.548 47.8004 24.932C48.4004 25.292 49.1444 25.472 50.0324 25.472C50.8484 25.472 51.5084 25.316 52.0124 25.004C52.5164 24.668 52.7684 24.26 52.7684 23.78C52.7684 23.348 52.5524 23.024 52.1204 22.808C51.6884 22.592 50.9804 22.364 49.9964 22.124C48.8684 21.836 47.9804 21.56 47.3324 21.296C45.7964 20.768 44.5724 20.12 43.6604 19.352C42.7484 18.584 42.2924 17.48 42.2924 16.04C42.2924 14.264 42.9764 12.86 44.3444 11.828C45.7364 10.772 47.5724 10.244 49.8524 10.244C51.3884 10.244 52.7324 10.496 53.8844 11C55.0364 11.48 55.9244 12.164 56.5484 13.052C57.1964 13.94 57.5204 14.948 57.5204 16.076C57.5204 16.196 57.4724 16.304 57.3764 16.4C57.3044 16.472 57.2084 16.508 57.0884 16.508H53.2364C53.1164 16.508 53.0084 16.472 52.9124 16.4C52.8404 16.304 52.8044 16.196 52.8044 16.076C52.8044 15.548 52.5284 15.104 51.9764 14.744C51.4484 14.384 50.7404 14.204 49.8524 14.204C49.0604 14.204 48.4124 14.348 47.9084 14.636C47.4044 14.924 47.1524 15.32 47.1524 15.824C47.1524 16.304 47.3924 16.664 47.8724 16.904C48.3764 17.144 49.2044 17.396 50.3564 17.66C50.6204 17.732 50.9204 17.816 51.2564 17.912C51.5924 17.984 51.9524 18.08 52.3364 18.2C54.0404 18.704 55.3844 19.352 56.3684 20.144C57.3524 20.936 57.8444 22.088 57.8444 23.6C57.8444 25.376 57.1364 26.768 55.7204 27.776C54.3284 28.76 52.4444 29.252 50.0684 29.252ZM71.5587 10.928C71.5587 10.808 71.5947 10.712 71.6667 10.64C71.7627 10.544 71.8707 10.496 71.9907 10.496H76.2027C76.3227 10.496 76.4187 10.544 76.4907 10.64C76.5867 10.712 76.6347 10.808 76.6347 10.928V28.568C76.6347 28.688 76.5867 28.796 76.4907 28.892C76.4187 28.964 76.3227 29 76.2027 29H71.9907C71.8707 29 71.7627 28.964 71.6667 28.892C71.5947 28.796 71.5587 28.688 71.5587 28.568V27.344C71.5587 27.272 71.5347 27.236 71.4867 27.236C71.4387 27.212 71.3907 27.236 71.3427 27.308C70.3827 28.604 68.8947 29.252 66.8787 29.252C65.0547 29.252 63.5547 28.7 62.3787 27.596C61.2027 26.492 60.6147 24.944 60.6147 22.952V10.928C60.6147 10.808 60.6507 10.712 60.7227 10.64C60.8187 10.544 60.9267 10.496 61.0467 10.496H65.2227C65.3427 10.496 65.4387 10.544 65.5107 10.64C65.6067 10.712 65.6547 10.808 65.6547 10.928V21.692C65.6547 22.652 65.9067 23.432 66.4107 24.032C66.9387 24.632 67.6587 24.932 68.5707 24.932C69.3867 24.932 70.0587 24.692 70.5867 24.212C71.1147 23.708 71.4387 23.06 71.5587 22.268V10.928ZM100.896 10.208C102.768 10.208 104.232 10.772 105.288 11.9C106.344 13.028 106.872 14.612 106.872 16.652V28.568C106.872 28.688 106.824 28.796 106.728 28.892C106.656 28.964 106.56 29 106.44 29H102.228C102.108 29 102 28.964 101.904 28.892C101.832 28.796 101.796 28.688 101.796 28.568V17.768C101.796 16.784 101.544 16.004 101.04 15.428C100.536 14.852 99.8639 14.564 99.0239 14.564C98.1839 14.564 97.4999 14.852 96.9719 15.428C96.4439 16.004 96.1799 16.772 96.1799 17.732V28.568C96.1799 28.688 96.1319 28.796 96.0359 28.892C95.9639 28.964 95.8679 29 95.7479 29H91.5719C91.4519 29 91.3439 28.964 91.2479 28.892C91.1759 28.796 91.1399 28.688 91.1399 28.568V17.768C91.1399 16.808 90.8759 16.04 90.3479 15.464C89.8199 14.864 89.1359 14.564 88.2959 14.564C87.5279 14.564 86.8799 14.792 86.3519 15.248C85.8479 15.704 85.5479 16.34 85.4519 17.156V28.568C85.4519 28.688 85.4039 28.796 85.3079 28.892C85.2359 28.964 85.1399 29 85.0199 29H80.8079C80.6879 29 80.5799 28.964 80.4839 28.892C80.4119 28.796 80.3759 28.688 80.3759 28.568V10.928C80.3759 10.808 80.4119 10.712 80.4839 10.64C80.5799 10.544 80.6879 10.496 80.8079 10.496H85.0199C85.1399 10.496 85.2359 10.544 85.3079 10.64C85.4039 10.712 85.4519 10.808 85.4519 10.928V12.332C85.4519 12.404 85.4759 12.452 85.5239 12.476C85.5719 12.5 85.6199 12.476 85.6679 12.404C86.6519 10.94 88.1759 10.208 90.2399 10.208C91.4399 10.208 92.4839 10.46 93.3719 10.964C94.2839 11.468 94.9799 12.188 95.4599 13.124C95.5319 13.268 95.6159 13.268 95.7119 13.124C96.2399 12.14 96.9479 11.408 97.8359 10.928C98.7479 10.448 99.7679 10.208 100.896 10.208ZM113.171 8.408C112.355 8.408 111.671 8.144 111.119 7.616C110.591 7.064 110.327 6.38 110.327 5.564C110.327 4.724 110.591 4.04 111.119 3.512C111.647 2.984 112.331 2.72 113.171 2.72C114.011 2.72 114.695 2.984 115.223 3.512C115.751 4.04 116.015 4.724 116.015 5.564C116.015 6.38 115.739 7.064 115.187 7.616C114.659 8.144 113.987 8.408 113.171 8.408ZM111.011 29C110.891 29 110.783 28.964 110.687 28.892C110.615 28.796 110.579 28.688 110.579 28.568V10.892C110.579 10.772 110.615 10.676 110.687 10.604C110.783 10.508 110.891 10.46 111.011 10.46H115.223C115.343 10.46 115.439 10.508 115.511 10.604C115.607 10.676 115.655 10.772 115.655 10.892V28.568C115.655 28.688 115.607 28.796 115.511 28.892C115.439 28.964 115.343 29 115.223 29H111.011Z" fill="white"/>
</svg>
