<svg width="118" height="58" viewBox="0 0 118 58" fill="none" xmlns="http://www.w3.org/2000/svg">
<path d="M6.912 56.1697C6.08 56.1697 5.34933 56.0097 4.72 55.6897C4.09067 55.3591 3.60533 54.9004 3.264 54.3137C2.92267 53.7271 2.752 53.0497 2.752 52.2817V48.5857C2.752 47.8177 2.92267 47.1404 3.264 46.5537C3.60533 45.9671 4.09067 45.5137 4.72 45.1937C5.34933 44.8737 6.08 44.7137 6.912 44.7137C7.73333 44.7137 8.45333 44.8684 9.072 45.1777C9.70133 45.4764 10.1867 45.9084 10.528 46.4737C10.88 47.0284 11.056 47.6737 11.056 48.4097C11.056 48.5057 10.992 48.5644 10.864 48.5857L8.992 48.6977H8.96C8.85333 48.6977 8.8 48.6391 8.8 48.5217C8.8 47.9564 8.624 47.5031 8.272 47.1617C7.93067 46.8204 7.47733 46.6497 6.912 46.6497C6.336 46.6497 5.872 46.8204 5.52 47.1617C5.17867 47.5031 5.008 47.9564 5.008 48.5217V52.3777C5.008 52.9324 5.17867 53.3804 5.52 53.7217C5.872 54.0631 6.336 54.2337 6.912 54.2337C7.47733 54.2337 7.93067 54.0631 8.272 53.7217C8.624 53.3804 8.8 52.9324 8.8 52.3777C8.8 52.2604 8.864 52.2017 8.992 52.2017L10.864 52.2817C10.9173 52.2817 10.96 52.2977 10.992 52.3297C11.0347 52.3617 11.056 52.3991 11.056 52.4417C11.056 53.1777 10.88 53.8284 10.528 54.3937C10.1867 54.9591 9.70133 55.3964 9.072 55.7057C8.45333 56.0151 7.73333 56.1697 6.912 56.1697ZM16.6944 56.2177C15.8624 56.2177 15.1264 56.0471 14.4864 55.7057C13.857 55.3644 13.3664 54.8897 13.0144 54.2817C12.6624 53.6631 12.4864 52.9537 12.4864 52.1537V48.7297C12.4864 47.9404 12.6624 47.2417 13.0144 46.6337C13.3664 46.0257 13.857 45.5564 14.4864 45.2257C15.1264 44.8844 15.8624 44.7137 16.6944 44.7137C17.537 44.7137 18.273 44.8844 18.9024 45.2257C19.5424 45.5564 20.0384 46.0257 20.3904 46.6337C20.7424 47.2417 20.9184 47.9404 20.9184 48.7297V52.1537C20.9184 52.9537 20.7424 53.6631 20.3904 54.2817C20.0384 54.9004 19.5424 55.3804 18.9024 55.7217C18.273 56.0524 17.537 56.2177 16.6944 56.2177ZM16.6944 54.2817C17.281 54.2817 17.7557 54.0951 18.1184 53.7217C18.481 53.3484 18.6624 52.8524 18.6624 52.2337V48.7137C18.6624 48.0951 18.481 47.5991 18.1184 47.2257C17.7664 46.8417 17.2917 46.6497 16.6944 46.6497C16.1077 46.6497 15.633 46.8417 15.2704 47.2257C14.9184 47.5991 14.7424 48.0951 14.7424 48.7137V52.2337C14.7424 52.8524 14.9184 53.3484 15.2704 53.7217C15.633 54.0951 16.1077 54.2817 16.6944 54.2817ZM29.0799 45.0337C29.0799 44.9804 29.0959 44.9377 29.1279 44.9057C29.1705 44.8631 29.2185 44.8417 29.2719 44.8417H31.1439C31.1972 44.8417 31.2399 44.8631 31.2719 44.9057C31.3145 44.9377 31.3359 44.9804 31.3359 45.0337V55.8497C31.3359 55.9031 31.3145 55.9511 31.2719 55.9937C31.2399 56.0257 31.1972 56.0417 31.1439 56.0417H29.3359C29.2292 56.0417 29.1545 55.9991 29.1119 55.9137L24.9679 49.0657C24.9465 49.0337 24.9252 49.0231 24.9039 49.0337C24.8825 49.0337 24.8719 49.0551 24.8719 49.0977L24.9039 55.8497C24.9039 55.9031 24.8825 55.9511 24.8399 55.9937C24.8079 56.0257 24.7652 56.0417 24.7119 56.0417H22.8399C22.7865 56.0417 22.7385 56.0257 22.6959 55.9937C22.6639 55.9511 22.6479 55.9031 22.6479 55.8497V45.0337C22.6479 44.9804 22.6639 44.9377 22.6959 44.9057C22.7385 44.8631 22.7865 44.8417 22.8399 44.8417H24.6479C24.7545 44.8417 24.8292 44.8844 24.8719 44.9697L28.9999 51.7857C29.0212 51.8177 29.0425 51.8337 29.0639 51.8337C29.0852 51.8231 29.0959 51.7964 29.0959 51.7537L29.0799 45.0337ZM37.1285 56.1697C36.2752 56.1697 35.5285 56.0364 34.8885 55.7697C34.2485 55.4924 33.7525 55.1031 33.4005 54.6017C33.0592 54.0897 32.8885 53.4977 32.8885 52.8257V52.4737C32.8885 52.4204 32.9045 52.3777 32.9365 52.3457C32.9792 52.3031 33.0272 52.2817 33.0805 52.2817H34.9045C34.9578 52.2817 35.0005 52.3031 35.0325 52.3457C35.0752 52.3777 35.0965 52.4204 35.0965 52.4737V52.7137C35.0965 53.1404 35.2938 53.5031 35.6885 53.8017C36.0832 54.0897 36.6165 54.2337 37.2885 54.2337C37.8538 54.2337 38.2752 54.1164 38.5525 53.8817C38.8298 53.6364 38.9685 53.3377 38.9685 52.9857C38.9685 52.7297 38.8832 52.5164 38.7125 52.3457C38.5418 52.1644 38.3072 52.0097 38.0085 51.8817C37.7205 51.7431 37.2565 51.5564 36.6165 51.3217C35.9018 51.0764 35.2938 50.8257 34.7925 50.5697C34.3018 50.3137 33.8858 49.9671 33.5445 49.5297C33.2138 49.0817 33.0485 48.5324 33.0485 47.8817C33.0485 47.2417 33.2138 46.6817 33.5445 46.2017C33.8752 45.7217 34.3338 45.3537 34.9205 45.0977C35.5072 44.8417 36.1845 44.7137 36.9525 44.7137C37.7632 44.7137 38.4832 44.8577 39.1125 45.1457C39.7525 45.4337 40.2485 45.8391 40.6005 46.3617C40.9632 46.8737 41.1445 47.4711 41.1445 48.1537V48.3937C41.1445 48.4471 41.1232 48.4951 41.0805 48.5377C41.0485 48.5697 41.0058 48.5857 40.9525 48.5857H39.1125C39.0592 48.5857 39.0112 48.5697 38.9685 48.5377C38.9365 48.4951 38.9205 48.4471 38.9205 48.3937V48.2657C38.9205 47.8177 38.7338 47.4391 38.3605 47.1297C37.9978 46.8097 37.4965 46.6497 36.8565 46.6497C36.3552 46.6497 35.9605 46.7564 35.6725 46.9697C35.3952 47.1831 35.2565 47.4764 35.2565 47.8497C35.2565 48.1164 35.3365 48.3404 35.4965 48.5217C35.6672 48.7031 35.9125 48.8684 36.2325 49.0177C36.5632 49.1564 37.0698 49.3484 37.7525 49.5937C38.5098 49.8711 39.1018 50.1164 39.5285 50.3297C39.9658 50.5431 40.3552 50.8631 40.6965 51.2897C41.0485 51.7057 41.2245 52.2497 41.2245 52.9217C41.2245 53.9244 40.8565 54.7191 40.1205 55.3057C39.3845 55.8817 38.3872 56.1697 37.1285 56.1697ZM46.8681 56.1697C46.0468 56.1697 45.3215 56.0097 44.6921 55.6897C44.0735 55.3697 43.5881 54.9217 43.2361 54.3457C42.8948 53.7591 42.7241 53.0871 42.7241 52.3297V45.0337C42.7241 44.9804 42.7401 44.9377 42.7721 44.9057C42.8148 44.8631 42.8628 44.8417 42.9161 44.8417H44.7881C44.8415 44.8417 44.8841 44.8631 44.9161 44.9057C44.9588 44.9377 44.9801 44.9804 44.9801 45.0337V52.3457C44.9801 52.9111 45.1508 53.3697 45.4921 53.7217C45.8441 54.0631 46.3028 54.2337 46.8681 54.2337C47.4335 54.2337 47.8868 54.0631 48.2281 53.7217C48.5801 53.3697 48.7561 52.9111 48.7561 52.3457V45.0337C48.7561 44.9804 48.7721 44.9377 48.8041 44.9057C48.8468 44.8631 48.8948 44.8417 48.9481 44.8417H50.8201C50.8735 44.8417 50.9161 44.8631 50.9481 44.9057C50.9908 44.9377 51.0121 44.9804 51.0121 45.0337V52.3297C51.0121 53.0871 50.8361 53.7591 50.4841 54.3457C50.1428 54.9217 49.6575 55.3697 49.0281 55.6897C48.4095 56.0097 47.6895 56.1697 46.8681 56.1697ZM53.0586 56.0417C53.0053 56.0417 52.9573 56.0257 52.9146 55.9937C52.8826 55.9511 52.8666 55.9031 52.8666 55.8497V45.0337C52.8666 44.9804 52.8826 44.9377 52.9146 44.9057C52.9573 44.8631 53.0053 44.8417 53.0586 44.8417H54.9306C54.984 44.8417 55.0266 44.8631 55.0586 44.9057C55.1013 44.9377 55.1226 44.9804 55.1226 45.0337V54.0257C55.1226 54.0791 55.1493 54.1057 55.2026 54.1057H60.4346C60.488 54.1057 60.5306 54.1271 60.5626 54.1697C60.6053 54.2017 60.6266 54.2444 60.6266 54.2977V55.8497C60.6266 55.9031 60.6053 55.9511 60.5626 55.9937C60.5306 56.0257 60.488 56.0417 60.4346 56.0417H53.0586ZM68.4228 44.8417C68.4761 44.8417 68.5188 44.8631 68.5508 44.9057C68.5934 44.9377 68.6148 44.9804 68.6148 45.0337V46.6017C68.6148 46.6551 68.5934 46.7031 68.5508 46.7457C68.5188 46.7777 68.4761 46.7937 68.4228 46.7937H65.5588C65.5054 46.7937 65.4788 46.8204 65.4788 46.8737V55.8497C65.4788 55.9031 65.4574 55.9511 65.4148 55.9937C65.3828 56.0257 65.3401 56.0417 65.2868 56.0417H63.4148C63.3614 56.0417 63.3134 56.0257 63.2708 55.9937C63.2388 55.9511 63.2228 55.9031 63.2228 55.8497V46.8737C63.2228 46.8204 63.1961 46.7937 63.1428 46.7937H60.3588C60.3054 46.7937 60.2574 46.7777 60.2148 46.7457C60.1828 46.7031 60.1668 46.6551 60.1668 46.6017V45.0337C60.1668 44.9804 60.1828 44.9377 60.2148 44.9057C60.2574 44.8631 60.3054 44.8417 60.3588 44.8417H68.4228ZM76.1429 56.0417C76.0362 56.0417 75.9669 55.9884 75.9349 55.8817L75.4549 54.3137C75.4335 54.2711 75.4069 54.2497 75.3749 54.2497H71.4389C71.4069 54.2497 71.3802 54.2711 71.3589 54.3137L70.8949 55.8817C70.8629 55.9884 70.7935 56.0417 70.6869 56.0417H68.6549C68.5909 56.0417 68.5429 56.0257 68.5109 55.9937C68.4789 55.9511 68.4735 55.8924 68.4949 55.8177L71.9509 45.0017C71.9829 44.8951 72.0522 44.8417 72.1589 44.8417H74.6709C74.7775 44.8417 74.8469 44.8951 74.8789 45.0017L78.3349 55.8177C78.3455 55.8391 78.3509 55.8657 78.3509 55.8977C78.3509 55.9937 78.2922 56.0417 78.1749 56.0417H76.1429ZM71.9349 52.4097C71.9242 52.4737 71.9455 52.5057 71.9989 52.5057H74.8149C74.8789 52.5057 74.9002 52.4737 74.8789 52.4097L73.4389 47.6577C73.4282 47.6151 73.4122 47.5991 73.3909 47.6097C73.3695 47.6097 73.3535 47.6257 73.3429 47.6577L71.9349 52.4097ZM86.1893 45.0337C86.1893 44.9804 86.2053 44.9377 86.2373 44.9057C86.2799 44.8631 86.3279 44.8417 86.3813 44.8417H88.2533C88.3066 44.8417 88.3493 44.8631 88.3813 44.9057C88.4239 44.9377 88.4453 44.9804 88.4453 45.0337V55.8497C88.4453 55.9031 88.4239 55.9511 88.3813 55.9937C88.3493 56.0257 88.3066 56.0417 88.2533 56.0417H86.4453C86.3386 56.0417 86.2639 55.9991 86.2213 55.9137L82.0773 49.0657C82.0559 49.0337 82.0346 49.0231 82.0133 49.0337C81.9919 49.0337 81.9813 49.0551 81.9813 49.0977L82.0133 55.8497C82.0133 55.9031 81.9919 55.9511 81.9493 55.9937C81.9173 56.0257 81.8746 56.0417 81.8213 56.0417H79.9493C79.8959 56.0417 79.8479 56.0257 79.8053 55.9937C79.7733 55.9511 79.7573 55.9031 79.7573 55.8497V45.0337C79.7573 44.9804 79.7733 44.9377 79.8053 44.9057C79.8479 44.8631 79.8959 44.8417 79.9493 44.8417H81.7573C81.8639 44.8417 81.9386 44.8844 81.9813 44.9697L86.1093 51.7857C86.1306 51.8177 86.1519 51.8337 86.1733 51.8337C86.1946 51.8231 86.2053 51.7964 86.2053 51.7537L86.1893 45.0337ZM94.3339 56.1697C93.5019 56.1697 92.7712 56.0097 92.1419 55.6897C91.5125 55.3591 91.0272 54.9004 90.6859 54.3137C90.3445 53.7271 90.1739 53.0497 90.1739 52.2817V48.5857C90.1739 47.8177 90.3445 47.1404 90.6859 46.5537C91.0272 45.9671 91.5125 45.5137 92.1419 45.1937C92.7712 44.8737 93.5019 44.7137 94.3339 44.7137C95.1552 44.7137 95.8752 44.8684 96.4939 45.1777C97.1232 45.4764 97.6085 45.9084 97.9499 46.4737C98.3019 47.0284 98.4779 47.6737 98.4779 48.4097C98.4779 48.5057 98.4139 48.5644 98.2859 48.5857L96.4139 48.6977H96.3819C96.2752 48.6977 96.2219 48.6391 96.2219 48.5217C96.2219 47.9564 96.0459 47.5031 95.6939 47.1617C95.3525 46.8204 94.8992 46.6497 94.3339 46.6497C93.7579 46.6497 93.2939 46.8204 92.9419 47.1617C92.6005 47.5031 92.4299 47.9564 92.4299 48.5217V52.3777C92.4299 52.9324 92.6005 53.3804 92.9419 53.7217C93.2939 54.0631 93.7579 54.2337 94.3339 54.2337C94.8992 54.2337 95.3525 54.0631 95.6939 53.7217C96.0459 53.3804 96.2219 52.9324 96.2219 52.3777C96.2219 52.2604 96.2859 52.2017 96.4139 52.2017L98.2859 52.2817C98.3392 52.2817 98.3819 52.2977 98.4139 52.3297C98.4565 52.3617 98.4779 52.3991 98.4779 52.4417C98.4779 53.1777 98.3019 53.8284 97.9499 54.3937C97.6085 54.9591 97.1232 55.3964 96.4939 55.7057C95.8752 56.0151 95.1552 56.1697 94.3339 56.1697ZM102.719 56.0257C102.665 56.0257 102.617 56.0097 102.575 55.9777C102.543 55.9351 102.527 55.8871 102.527 55.8337V51.7857C102.527 51.7431 102.521 51.7111 102.511 51.6897L99.2148 45.0657C99.1934 45.0231 99.1828 44.9911 99.1828 44.9697C99.1828 44.8844 99.2414 44.8417 99.3588 44.8417H101.375C101.481 44.8417 101.556 44.8897 101.599 44.9857L103.599 49.2417C103.631 49.3057 103.663 49.3057 103.695 49.2417L105.695 44.9857C105.737 44.8897 105.812 44.8417 105.919 44.8417H107.967C108.041 44.8417 108.089 44.8631 108.111 44.9057C108.143 44.9377 108.143 44.9911 108.111 45.0657L104.783 51.6897C104.772 51.7111 104.767 51.7431 104.767 51.7857V55.8337C104.767 55.8871 104.745 55.9351 104.703 55.9777C104.671 56.0097 104.628 56.0257 104.575 56.0257H102.719ZM109.09 56.0417C109.036 56.0417 108.988 56.0257 108.946 55.9937C108.914 55.9511 108.898 55.9031 108.898 55.8497V54.5217C108.898 54.4684 108.914 54.4257 108.946 54.3937C108.988 54.3511 109.036 54.3297 109.09 54.3297H116.466C116.519 54.3297 116.562 54.3511 116.594 54.3937C116.636 54.4257 116.658 54.4684 116.658 54.5217V55.8497C116.658 55.9031 116.636 55.9511 116.594 55.9937C116.562 56.0257 116.519 56.0417 116.466 56.0417H109.09Z" fill="#16133E"/>
<path d="M11.052 34.288C9.18 34.288 7.536 33.928 6.12 33.208C4.704 32.464 3.612 31.432 2.844 30.112C2.076 28.792 1.692 27.268 1.692 25.54V17.224C1.692 15.496 2.076 13.972 2.844 12.652C3.612 11.332 4.704 10.312 6.12 9.592C7.536 8.872 9.18 8.512 11.052 8.512C12.9 8.512 14.52 8.86 15.912 9.556C17.328 10.228 18.42 11.2 19.188 12.472C19.98 13.72 20.376 15.172 20.376 16.828C20.376 17.044 20.232 17.176 19.944 17.224L15.732 17.476H15.66C15.42 17.476 15.3 17.344 15.3 17.08C15.3 15.808 14.904 14.788 14.112 14.02C13.344 13.252 12.324 12.868 11.052 12.868C9.756 12.868 8.712 13.252 7.92 14.02C7.152 14.788 6.768 15.808 6.768 17.08V25.756C6.768 27.004 7.152 28.012 7.92 28.78C8.712 29.548 9.756 29.932 11.052 29.932C12.324 29.932 13.344 29.548 14.112 28.78C14.904 28.012 15.3 27.004 15.3 25.756C15.3 25.492 15.444 25.36 15.732 25.36L19.944 25.54C20.064 25.54 20.16 25.576 20.232 25.648C20.328 25.72 20.376 25.804 20.376 25.9C20.376 27.556 19.98 29.02 19.188 30.292C18.42 31.564 17.328 32.548 15.912 33.244C14.52 33.94 12.9 34.288 11.052 34.288ZM31.0489 15.208C32.6089 15.208 34.0009 15.484 35.2249 16.036C36.4489 16.564 37.3969 17.296 38.0689 18.232C38.7649 19.168 39.1129 20.212 39.1129 21.364V33.568C39.1129 33.688 39.0649 33.796 38.9689 33.892C38.8969 33.964 38.8009 34 38.6809 34H34.4689C34.3489 34 34.2409 33.964 34.1449 33.892C34.0729 33.796 34.0369 33.688 34.0369 33.568V32.38C34.0369 32.308 34.0129 32.26 33.9649 32.236C33.9169 32.212 33.8689 32.236 33.8209 32.308C32.8129 33.628 31.1929 34.288 28.9609 34.288C27.0889 34.288 25.5769 33.832 24.4249 32.92C23.2729 32.008 22.6969 30.664 22.6969 28.888C22.6969 27.04 23.3449 25.612 24.6409 24.604C25.9369 23.572 27.7849 23.056 30.1849 23.056H33.8569C33.9769 23.056 34.0369 22.996 34.0369 22.876V22.084C34.0369 21.292 33.7969 20.68 33.3169 20.248C32.8369 19.792 32.1169 19.564 31.1569 19.564C30.4129 19.564 29.7889 19.696 29.2849 19.96C28.8049 20.224 28.4929 20.596 28.3489 21.076C28.2769 21.34 28.1209 21.46 27.8809 21.436L23.5249 20.86C23.2369 20.812 23.1049 20.704 23.1289 20.536C23.2249 19.528 23.6209 18.616 24.3169 17.8C25.0369 16.984 25.9729 16.348 27.1249 15.892C28.3009 15.436 29.6089 15.208 31.0489 15.208ZM30.3289 30.508C31.3609 30.508 32.2369 30.232 32.9569 29.68C33.6769 29.128 34.0369 28.42 34.0369 27.556V26.26C34.0369 26.14 33.9769 26.08 33.8569 26.08H31.2649C30.1849 26.08 29.3329 26.284 28.7089 26.692C28.1089 27.1 27.8089 27.676 27.8089 28.42C27.8089 29.068 28.0369 29.584 28.4929 29.968C28.9489 30.328 29.5609 30.508 30.3289 30.508ZM50.0684 34.252C48.4604 34.252 47.0564 34.024 45.8564 33.568C44.6564 33.112 43.7204 32.476 43.0484 31.66C42.4004 30.844 42.0764 29.92 42.0764 28.888V28.528C42.0764 28.408 42.1124 28.312 42.1844 28.24C42.2804 28.144 42.3884 28.096 42.5084 28.096H46.5044C46.6244 28.096 46.7204 28.144 46.7924 28.24C46.8884 28.312 46.9364 28.408 46.9364 28.528V28.564C46.9364 29.092 47.2244 29.548 47.8004 29.932C48.4004 30.292 49.1444 30.472 50.0324 30.472C50.8484 30.472 51.5084 30.316 52.0124 30.004C52.5164 29.668 52.7684 29.26 52.7684 28.78C52.7684 28.348 52.5524 28.024 52.1204 27.808C51.6884 27.592 50.9804 27.364 49.9964 27.124C48.8684 26.836 47.9804 26.56 47.3324 26.296C45.7964 25.768 44.5724 25.12 43.6604 24.352C42.7484 23.584 42.2924 22.48 42.2924 21.04C42.2924 19.264 42.9764 17.86 44.3444 16.828C45.7364 15.772 47.5724 15.244 49.8524 15.244C51.3884 15.244 52.7324 15.496 53.8844 16C55.0364 16.48 55.9244 17.164 56.5484 18.052C57.1964 18.94 57.5204 19.948 57.5204 21.076C57.5204 21.196 57.4724 21.304 57.3764 21.4C57.3044 21.472 57.2084 21.508 57.0884 21.508H53.2364C53.1164 21.508 53.0084 21.472 52.9124 21.4C52.8404 21.304 52.8044 21.196 52.8044 21.076C52.8044 20.548 52.5284 20.104 51.9764 19.744C51.4484 19.384 50.7404 19.204 49.8524 19.204C49.0604 19.204 48.4124 19.348 47.9084 19.636C47.4044 19.924 47.1524 20.32 47.1524 20.824C47.1524 21.304 47.3924 21.664 47.8724 21.904C48.3764 22.144 49.2044 22.396 50.3564 22.66C50.6204 22.732 50.9204 22.816 51.2564 22.912C51.5924 22.984 51.9524 23.08 52.3364 23.2C54.0404 23.704 55.3844 24.352 56.3684 25.144C57.3524 25.936 57.8444 27.088 57.8444 28.6C57.8444 30.376 57.1364 31.768 55.7204 32.776C54.3284 33.76 52.4444 34.252 50.0684 34.252ZM71.5587 15.928C71.5587 15.808 71.5947 15.712 71.6667 15.64C71.7627 15.544 71.8707 15.496 71.9907 15.496H76.2027C76.3227 15.496 76.4187 15.544 76.4907 15.64C76.5867 15.712 76.6347 15.808 76.6347 15.928V33.568C76.6347 33.688 76.5867 33.796 76.4907 33.892C76.4187 33.964 76.3227 34 76.2027 34H71.9907C71.8707 34 71.7627 33.964 71.6667 33.892C71.5947 33.796 71.5587 33.688 71.5587 33.568V32.344C71.5587 32.272 71.5347 32.236 71.4867 32.236C71.4387 32.212 71.3907 32.236 71.3427 32.308C70.3827 33.604 68.8947 34.252 66.8787 34.252C65.0547 34.252 63.5547 33.7 62.3787 32.596C61.2027 31.492 60.6147 29.944 60.6147 27.952V15.928C60.6147 15.808 60.6507 15.712 60.7227 15.64C60.8187 15.544 60.9267 15.496 61.0467 15.496H65.2227C65.3427 15.496 65.4387 15.544 65.5107 15.64C65.6067 15.712 65.6547 15.808 65.6547 15.928V26.692C65.6547 27.652 65.9067 28.432 66.4107 29.032C66.9387 29.632 67.6587 29.932 68.5707 29.932C69.3867 29.932 70.0587 29.692 70.5867 29.212C71.1147 28.708 71.4387 28.06 71.5587 27.268V15.928ZM100.896 15.208C102.768 15.208 104.232 15.772 105.288 16.9C106.344 18.028 106.872 19.612 106.872 21.652V33.568C106.872 33.688 106.824 33.796 106.728 33.892C106.656 33.964 106.56 34 106.44 34H102.228C102.108 34 102 33.964 101.904 33.892C101.832 33.796 101.796 33.688 101.796 33.568V22.768C101.796 21.784 101.544 21.004 101.04 20.428C100.536 19.852 99.8639 19.564 99.0239 19.564C98.1839 19.564 97.4999 19.852 96.9719 20.428C96.4439 21.004 96.1799 21.772 96.1799 22.732V33.568C96.1799 33.688 96.1319 33.796 96.0359 33.892C95.9639 33.964 95.8679 34 95.7479 34H91.5719C91.4519 34 91.3439 33.964 91.2479 33.892C91.1759 33.796 91.1399 33.688 91.1399 33.568V22.768C91.1399 21.808 90.8759 21.04 90.3479 20.464C89.8199 19.864 89.1359 19.564 88.2959 19.564C87.5279 19.564 86.8799 19.792 86.3519 20.248C85.8479 20.704 85.5479 21.34 85.4519 22.156V33.568C85.4519 33.688 85.4039 33.796 85.3079 33.892C85.2359 33.964 85.1399 34 85.0199 34H80.8079C80.6879 34 80.5799 33.964 80.4839 33.892C80.4119 33.796 80.3759 33.688 80.3759 33.568V15.928C80.3759 15.808 80.4119 15.712 80.4839 15.64C80.5799 15.544 80.6879 15.496 80.8079 15.496H85.0199C85.1399 15.496 85.2359 15.544 85.3079 15.64C85.4039 15.712 85.4519 15.808 85.4519 15.928V17.332C85.4519 17.404 85.4759 17.452 85.5239 17.476C85.5719 17.5 85.6199 17.476 85.6679 17.404C86.6519 15.94 88.1759 15.208 90.2399 15.208C91.4399 15.208 92.4839 15.46 93.3719 15.964C94.2839 16.468 94.9799 17.188 95.4599 18.124C95.5319 18.268 95.6159 18.268 95.7119 18.124C96.2399 17.14 96.9479 16.408 97.8359 15.928C98.7479 15.448 99.7679 15.208 100.896 15.208ZM113.171 13.408C112.355 13.408 111.671 13.144 111.119 12.616C110.591 12.064 110.327 11.38 110.327 10.564C110.327 9.724 110.591 9.04 111.119 8.512C111.647 7.984 112.331 7.72 113.171 7.72C114.011 7.72 114.695 7.984 115.223 8.512C115.751 9.04 116.015 9.724 116.015 10.564C116.015 11.38 115.739 12.064 115.187 12.616C114.659 13.144 113.987 13.408 113.171 13.408ZM111.011 34C110.891 34 110.783 33.964 110.687 33.892C110.615 33.796 110.579 33.688 110.579 33.568V15.892C110.579 15.772 110.615 15.676 110.687 15.604C110.783 15.508 110.891 15.46 111.011 15.46H115.223C115.343 15.46 115.439 15.508 115.511 15.604C115.607 15.676 115.655 15.772 115.655 15.892V33.568C115.655 33.688 115.607 33.796 115.511 33.892C115.439 33.964 115.343 34 115.223 34H111.011Z" fill="#16133E"/>
</svg>
